HIERARCHY
ROOT Hips
{
	OFFSET -14.64140 90.27770 -84.91600
	CHANNELS 6 Xposition Yposition Zposition Zrotation Xrotation Yrotation
	JOINT Spine
	{
		OFFSET 0.00000 13.20850 -1.60436
		CHANNELS 3 Zrotation Xrotation Yrotation
		JOINT Spine1
		{
			OFFSET 0.00000 8.61716 0.00000
			CHANNELS 3 Zrotation Xrotation Yrotation
			JOINT Spine2
			{
				OFFSET 0.00000 8.61717 0.00000
				CHANNELS 3 Zrotation Xrotation Yrotation
				JOINT Spine3
				{
					OFFSET 0.00000 8.61717 0.00000
					CHANNELS 3 Zrotation Xrotation Yrotation
					JOINT Neck
					{
						OFFSET 0.00000 11.07920 1.10792
						CHANNELS 3 Zrotation Xrotation Yrotation
						JOINT Neck1
						{
							OFFSET 0.00000 7.08032 0.00000
							CHANNELS 3 Zrotation Xrotation Yrotation
							JOINT Head
							{
								OFFSET 0.00000 7.08031 0.00000
								CHANNELS 3 Zrotation Xrotation Yrotation
								End site
								{
									OFFSET 0.00000 0.00000 0.00000
								}
							}
						}
					}
					JOINT RightShoulder
					{
						OFFSET -0.01000 7.91373 5.19711
						CHANNELS 3 Zrotation Xrotation Yrotation
						JOINT RightArm
						{
							OFFSET -18.41580 0.00000 0.00000
							CHANNELS 3 Zrotation Xrotation Yrotation
							JOINT RightForeArm
							{
								OFFSET -29.11090 0.00000 0.00000
								CHANNELS 3 Zrotation Xrotation Yrotation
								JOINT RightHand
								{
									OFFSET -24.65040 0.00000 0.00000
									CHANNELS 3 Zrotation Xrotation Yrotation
									JOINT RightHandThumb1
									{
										OFFSET -5.35114 -0.85590 3.97906
										CHANNELS 3 Zrotation Xrotation Yrotation
										JOINT RightHandThumb2
										{
											OFFSET -4.52789 0.00000 0.00000
											CHANNELS 3 Zrotation Xrotation Yrotation
											JOINT RightHandThumb3
											{
												OFFSET -2.46976 0.00000 0.00000
												CHANNELS 3 Zrotation Xrotation Yrotation
												End site
												{
													OFFSET 0.00000 0.00000 0.00000
												}
											}
										}
									}
									JOINT RightHandIndex1
									{
										OFFSET -14.26970 0.00000 2.88139
										CHANNELS 3 Zrotation Xrotation Yrotation
										JOINT RightHandIndex2
										{
											OFFSET -5.48836 0.00000 0.00000
											CHANNELS 3 Zrotation Xrotation Yrotation
											JOINT RightHandIndex3
											{
												OFFSET -3.01859 0.00000 0.00000
												CHANNELS 3 Zrotation Xrotation Yrotation
												End site
												{
													OFFSET 0.00000 0.00000 0.00000
												}
											}
										}
									}
									JOINT RightHandMiddle1
									{
										OFFSET -14.26970 0.00000 -0.09147
										CHANNELS 3 Zrotation Xrotation Yrotation
										JOINT RightHandMiddle2
										{
											OFFSET -6.17441 0.00000 0.00000
											CHANNELS 3 Zrotation Xrotation Yrotation
											JOINT RightHandMiddle3
											{
												OFFSET -3.56743 0.00000 0.00000
												CHANNELS 3 Zrotation Xrotation Yrotation
												End site
												{
													OFFSET 0.00000 0.00000 0.00000
												}
											}
										}
									}
									JOINT RightHandRing1
									{
										OFFSET -12.69180 0.00000 -3.06433
										CHANNELS 3 Zrotation Xrotation Yrotation
										JOINT RightHandRing2
										{
											OFFSET -5.62556 0.00000 0.00000
											CHANNELS 3 Zrotation Xrotation Yrotation
											JOINT RightHandRing3
											{
												OFFSET -3.56744 0.00000 0.00000
												CHANNELS 3 Zrotation Xrotation Yrotation
												End site
												{
													OFFSET 0.00000 0.00000 0.00000
												}
											}
										}
									}
									JOINT RightHandPinky1
									{
										OFFSET -11.11390 0.00000 -6.03719
										CHANNELS 3 Zrotation Xrotation Yrotation
										JOINT RightHandPinky2
										{
											OFFSET -4.52789 0.00000 0.00000
											CHANNELS 3 Zrotation Xrotation Yrotation
											JOINT RightHandPinky3
											{
												OFFSET -2.46976 0.00000 0.00000
												CHANNELS 3 Zrotation Xrotation Yrotation
												End site
												{
													OFFSET 0.00000 0.00000 0.00000
												}
											}
										}
									}
								}
							}
						}
					}
					JOINT LeftShoulder
					{
						OFFSET 0.01000 7.91373 5.19711
						CHANNELS 3 Zrotation Xrotation Yrotation
						JOINT LeftArm
						{
							OFFSET 18.41580 0.00000 0.00000
							CHANNELS 3 Zrotation Xrotation Yrotation
							JOINT LeftForeArm
							{
								OFFSET 29.11090 0.00000 0.00000
								CHANNELS 3 Zrotation Xrotation Yrotation
								JOINT LeftHand
								{
									OFFSET 24.65040 0.00000 0.00000
									CHANNELS 3 Zrotation Xrotation Yrotation
									JOINT LeftHandThumb1
									{
										OFFSET 5.35114 -0.85590 3.97906
										CHANNELS 3 Zrotation Xrotation Yrotation
										JOINT LeftHandThumb2
										{
											OFFSET 4.52789 0.00000 0.00000
											CHANNELS 3 Zrotation Xrotation Yrotation
											JOINT LeftHandThumb3
											{
												OFFSET 2.46977 0.00000 0.00000
												CHANNELS 3 Zrotation Xrotation Yrotation
												End site
												{
													OFFSET 0.00000 0.00000 0.00000
												}
											}
										}
									}
									JOINT LeftHandIndex1
									{
										OFFSET 14.26970 0.00000 2.88139
										CHANNELS 3 Zrotation Xrotation Yrotation
										JOINT LeftHandIndex2
										{
											OFFSET 5.48836 0.00000 0.00000
											CHANNELS 3 Zrotation Xrotation Yrotation
											JOINT LeftHandIndex3
											{
												OFFSET 3.01859 0.00000 0.00000
												CHANNELS 3 Zrotation Xrotation Yrotation
												End site
												{
													OFFSET 0.00000 0.00000 0.00000
												}
											}
										}
									}
									JOINT LeftHandMiddle1
									{
										OFFSET 14.26970 0.00000 -0.09147
										CHANNELS 3 Zrotation Xrotation Yrotation
										JOINT LeftHandMiddle2
										{
											OFFSET 6.17440 0.00000 0.00000
											CHANNELS 3 Zrotation Xrotation Yrotation
											JOINT LeftHandMiddle3
											{
												OFFSET 3.56744 0.00000 0.00000
												CHANNELS 3 Zrotation Xrotation Yrotation
												End site
												{
													OFFSET 0.00000 0.00000 0.00000
												}
											}
										}
									}
									JOINT LeftHandRing1
									{
										OFFSET 12.69180 0.00000 -3.06433
										CHANNELS 3 Zrotation Xrotation Yrotation
										JOINT LeftHandRing2
										{
											OFFSET 5.62556 0.00000 0.00000
											CHANNELS 3 Zrotation Xrotation Yrotation
											JOINT LeftHandRing3
											{
												OFFSET 3.56744 0.00000 0.00000
												CHANNELS 3 Zrotation Xrotation Yrotation
												End site
												{
													OFFSET 0.00000 0.00000 0.00000
												}
											}
										}
									}
									JOINT LeftHandPinky1
									{
										OFFSET 11.11390 0.00000 -6.03719
										CHANNELS 3 Zrotation Xrotation Yrotation
										JOINT LeftHandPinky2
										{
											OFFSET 4.52789 0.00000 0.00000
											CHANNELS 3 Zrotation Xrotation Yrotation
											JOINT LeftHandPinky3
											{
												OFFSET 2.46976 0.00000 0.00000
												CHANNELS 3 Zrotation Xrotation Yrotation
												End site
												{
													OFFSET 0.00000 0.00000 0.00000
												}
											}
										}
									}
								}
							}
						}
					}
					JOINT pCube4
					{
						OFFSET 0.00000 10.91090 1.10792
						CHANNELS 3 Zrotation Xrotation Yrotation
						End site
						{
							OFFSET 0.00000 0.00000 0.00000
						}
					}
				}
			}
		}
	}
	JOINT RightUpLeg
	{
		OFFSET -9.98441 0.00000 0.00000
		CHANNELS 3 Zrotation Xrotation Yrotation
		JOINT RightLeg
		{
			OFFSET 0.00000 -42.11790 0.00000
			CHANNELS 3 Zrotation Xrotation Yrotation
			JOINT RightFoot
			{
				OFFSET 0.00000 -45.00020 -0.00001
				CHANNELS 3 Zrotation Xrotation Yrotation
				JOINT RightForeFoot
				{
					OFFSET 0.00000 -3.74820 0.00000
					CHANNELS 3 Zrotation Xrotation Yrotation
					JOINT RightToeBase
					{
						OFFSET 0.00000 0.06325 14.43120
						CHANNELS 3 Zrotation Xrotation Yrotation
						End site
						{
							OFFSET 0.00000 0.00000 0.00000
						}
					}
				}
			}
		}
	}
	JOINT LeftUpLeg
	{
		OFFSET 9.98441 0.00000 0.00000
		CHANNELS 3 Zrotation Xrotation Yrotation
		JOINT LeftLeg
		{
			OFFSET 0.00000 -42.11800 0.00000
			CHANNELS 3 Zrotation Xrotation Yrotation
			JOINT LeftFoot
			{
				OFFSET 0.00000 -45.00070 0.00000
				CHANNELS 3 Zrotation Xrotation Yrotation
				JOINT LeftForeFoot
				{
					OFFSET 0.00000 -3.74824 0.00000
					CHANNELS 3 Zrotation Xrotation Yrotation
					JOINT LeftToeBase
					{
						OFFSET 0.00000 0.06325 14.43110
						CHANNELS 3 Zrotation Xrotation Yrotation
						End site
						{
							OFFSET 0.00000 0.00000 0.00000
						}
					}
				}
			}
		}
	}
}
MOTION
Frames: 4
Frame Time: 0.050000
0.01504733022358195 -0.03263473468723135 -0.02206145223483837 0.02952990531231256 -0.00041708165232612663 -0.030742408115038224 -3.2869980565387826 8.602015263249607 -0.6251079678204494 -0.8490424432652008 3.1575469261433797 0.3868275324163831 -0.8814486233741173 0.20463974757492523 -1.70996224343214 -0.12354708052691057 0.5641869778790464 -1.0305653876503476 -0.516821487966334 8.776566584435995 0.24511745164629192 -0.27714069614189435 -1.155337757945122 -2.4754450280516616 -0.21379665617056093 -15.579100636512164 -0.17467449690600795 3.1196845134717703 0.07034067934052854 -9.858171195068907 60.988685505422104 2.4257763323636548 22.07779713064623 6.41112106477847 4.387276792403464 98.14511092947791 16.166021674946418 -0.42393689523316536 -5.509644845553456 4.545786962005986 -0.10311900243461146 -1.607048012721139 0.024828938958636804 0.007670965782239375 -56.27924720403987 0.047881643718261487 0.036825643659379424 -56.23128206626512 -38.74545623986139 -0.013949925320812651 0.020749649827119056 0.012122751941981398 0.027316353074574622 0.032723487540471614 -0.037335311732291016 0.029168814247321716 -0.013431772097449403 -36.67401407678442 -0.030238686492922676 0.018750150138002117 -0.008926307172821587 -0.021557026509624835 0.010823320237955115 -0.027392199589367453 0.026221653010332278 0.019266838687972694 -19.783402676079348 0.043186180526447696 -0.027109635131362823 -0.004693326291322462 0.007976929963803786 -0.0007094595619482349 0.013462835463589149 -0.049210537112280024 -0.0034899673462464717 24.073790993513484 0.019760793864712925 -0.0452324449047457 28.85159917968755 -0.012989935368994402 0.04047395903439807 28.836579881938462 0.04162567753260414 0.03657672289473081 -0.21809532454574798 0.5003406414654303 8.835055285480939 -54.88941103776507 20.799961742654364 -32.37164253683392 16.323851166257548 -12.524382522036415 -105.61651115366818 -3.250083449738018 1.7825972344894618 -4.068501184209549 -0.5137055315385652 0.07365334181006357 -8.132314879696937 0.01978539940829718 0.04849789427837897 44.56129935143133 0.024861998713213502 0.000795773709999154 44.58106609562678 12.477688437977177 -0.020096855519841417 0.04422944660202091 0.035636951416527715 -0.014854663520468105 0.008362047549572905 0.03201884283577542 0.0424220815945424 -0.00021948843342555827 11.101366063775176 -0.006992331850445615 -0.035281740078117366 -0.009014328914522717 -0.012816584870884488 0.04904476616401332 0.017817800802064285 -0.043649111706500834 0.03355344845720367 4.757745638700853 0.0014722847621933466 -0.01983888628666017 -0.0017280166393344085 0.043029550283691646 0.0041870820122911975 0.03359870806944933 0.02569439965993404 0.011746631490988518 -5.623158450147938 0.021462010523212095 0.021435149351608056 -6.677425417461869 -0.03314697742624162 -0.03673926547980332 -6.722395692848126 0.00814214315782815 -0.019385460440810274 0.03980336844394471 -0.029002246138426113 0.008125093717638277 8.073509832486149 3.4843291803825336 -19.230183345485987 -0.03187446220070027 10.400127883214946 0.02979961097554358 -5.66128397353184 -15.636913863025605 3.167940205908697 0.01145444702438956 -0.01250296552549642 0.011488182683122706 -0.045286491694660626 4.674023166980835 -0.013182237761250196 12.444488433579469 -8.19692335971378 6.910238903147712 -0.0471682637937591 46.33935484505053 -0.007034294601199536 -4.323085405646263 -14.77610608686153 -3.8239485905145845 0.014567892855075351 -0.003866743001120737 0.01849222428328978 -0.0386762106057906 -10.713585836822192 -0.0077684747411464255 
-0.010015094665528355 -0.016240662756866853 0.012059281633921077 -0.033653315339521886 0.022591909785818886 0.03358012343565471 -3.375530347973731 8.699091845081409 -0.6274261873309712 -0.7921438139790474 3.151284293656334 0.39788210379310285 -0.9481049662590644 0.2436870050385435 -1.6683344241512335 -0.20461679842466987 0.5951678835244172 -1.0784464263732427 -0.5775944262879723 8.729906851063037 0.3582073056642361 -0.22863294600911946 -1.1374564432643777 -2.4218559510853384 -0.2099511229088697 -15.602911479436449 -0.15492556786196926 3.1753223333807976 0.06600371567367962 -9.830032107582168 60.25106161079132 1.8026531449201888 22.29632049262478 4.83481383089109 3.818106285472944 98.46778551285544 16.353672014422806 -0.40825497842942154 -5.291199806039721 4.496957480976773 -0.1430189276169554 -1.5802561836235398 0.015542295789601836 0.026174221449176773 -56.23380647461392 -0.031177747587151843 -0.030148066154945863 -56.26786939357307 -38.7662018644901 0.0339189398056902 0.02578015040180898 -0.040163228464137356 -0.012530485752076532 -0.010710620506577407 0.006638423377087838 0.0007257627428533907 -0.004944850813330734 -36.68525947547603 0.024788646884377055 0.007381384804433071 0.02749799997293978 0.03430158980794041 -0.0029291842680905225 -0.0388031819287305 -0.027197372196961556 0.02979180713287366 -19.79538177247898 0.01308608548370805 -0.002731132136602341 -0.008864049279457248 0.04686538196882746 0.01429907625272888 -0.0261459930228274 0.019966535762584434 0.03180302575890379 24.08726314607105 0.02045625042958569 -0.03874596312636375 28.86586518848833 0.04317219958600959 0.03433857722871942 28.88287590469031 0.0038449395839044317 -0.017917249901563723 -0.2104560804478135 0.5352426190861046 8.841063124113527 -53.76212207967807 20.384797314852314 -32.686648344748136 21.070134256083975 -13.97372789769699 -107.1724970627974 -2.5847078554963585 2.3204939192408385 -4.873241466798916 -0.5173644724424078 0.021170873780257372 -8.157809407136673 -0.019449323619732943 0.03667089242095312 44.61019853053507 -0.04594084068345534 0.02981328556872439 44.55828079801253 12.46250331488231 -0.014348845294108086 0.04015945375688917 -0.0023838199441603303 -0.012734154468736601 -0.016129192728995576 -0.0031575575693765165 -0.012474245976209898 0.03310108387580937 11.088884670029945 0.02397373467247826 -0.014960635594206706 0.00505873456023756 0.007602245834573522 -0.007583521084238641 0.0006420553256228051 -0.02135069357991531 -0.021738658430031813 4.725496263514665 -0.036277532174843204 -0.01774702228573992 0.04904406487150318 -0.011016673445510432 -0.004872201961678971 0.022946266257484152 0.010660337043064438 -0.014130320707595925 -5.571395226001984 -0.04883948893120295 -0.025223909637348493 -6.685371419975507 0.005493650067735711 -0.04241285818198964 -6.675237819381112 0.01940211117510646 0.03929284245263819 -0.009356285102332126 0.0031795055850520216 -0.014378618754642266 8.040867520151831 3.500319805956725 -19.193494495881808 0.019663429647509716 10.37872976684431 0.04208297255732522 -5.593214689262783 -15.692148443017896 3.237789947584192 0.022321448691452733 0.018859324756496754 -0.012994894317760972 -0.02586756915947428 4.738384433662864 0.019290931125233248 12.480162118866591 -8.272597483917801 6.900001332968618 0.03068960520063051 46.36566505510241 -0.03206494942146124 -4.328689262829862 -14.71245596987133 -3.8312988624040267 -0.025562463155980996 -0.003568034532332192 0.04772448962653938 -0.02298910485911959 -10.72302195215266 0.022658166941983863 
0.010786787124188197 -0.021311105183682205 0.032010263329267506 -0.03331162471427194 0.01944382196089367 0.03461490096888532 -3.3402803094069204 8.76776936356411 -0.599702114431737 -0.8414876431370306 3.145565027850694 0.35046610585122073 -0.9030650647559192 0.2810732807471599 -1.6773551768418893 -0.13792653962117132 0.5772551338702471 -1.099025396512797 -0.5820186331607217 8.768340362620679 0.34354491902103607 -0.2845322547160883 -1.0911949192419763 -2.376106733636711 -0.23682212922989015 -15.497373159156078 -0.1426823074826496 3.1493357799061505 0.0710581070790946 -9.75109078479235 59.652365674701436 1.310574122785013 22.396987803271934 3.5619025446271806 3.411495913483725 98.53623814498813 16.411861363009397 -0.43993672571554465 -4.97001297191145 4.5087207043141975 -0.16955194219246306 -1.6358938381629815 0.019285691479522048 0.017579262068736893 -56.256059236202596 0.029088940186687916 0.049195190018873125 -56.23726685131704 -38.7275555285311 -0.030995028112224942 0.02620514847998098 -0.02237947965146846 0.047679493149196915 0.008100729229439685 -0.013763462955175594 -0.04359060576513376 0.008374302488244839 -36.723920765353235 -0.02505489672452091 0.02506667135097624 0.006299786493871399 -0.03555423386779496 0.04090089017431772 -0.029349994229251074 -0.004940476028182861 -0.031224620961283464 -19.737261971720542 -0.04951444732570656 0.03550313711544931 -0.02724679536298209 -0.039266660878082234 -0.007877546665135021 -0.011233240585746217 -0.003974424054606735 0.019737374373299654 24.045628366230684 -0.04317392306802221 0.013205849961301573 28.830582033573652 -0.031124822276570086 -0.026072368011681935 28.87057577666558 0.03849244147081925 -0.03810339254618514 -0.21695732685683655 0.5657326034921756 8.820579067364315 -52.88268639457636 20.06695255935686 -32.88870586798364 24.992542388766903 -15.20222095731788 -108.28160964433165 -2.143034470213109 2.7841141459712198 -5.635683728734898 -0.4490640829923691 0.02307821838067791 -8.137792068416438 0.007666635696830258 -0.02160888060091112 44.541067376849625 -0.024486004436134672 0.026880425115466955 44.595966183125725 12.433047908455507 -0.008502200604156096 -0.03802619999263465 0.0220494742936004 -0.003475198322818314 -0.03213839617309308 -0.04150899140749166 0.02842557052643293 0.03572267046177241 11.098752162138071 0.048136864325513326 -0.0462693673231592 -0.007959629850750747 0.036212589905117096 0.02003656247313193 -0.016394521259381716 0.019592644187660085 -0.026072155426563437 4.7671765662874765 0.034319038796139595 0.03577287594236456 -0.039899065585518666 -0.026062693116429104 0.0018554991660058627 0.04945944734849189 -0.0037566290194791224 0.024404464689083853 -5.5802156444746664 0.012476685327326318 0.005155409077912982 -6.7707339747197 -0.02398700863770848 0.020493766851901265 -6.677106276930013 0.004896183324218782 -0.0024479345955474223 0.002206787746006508 0.013412248048750082 0.007430808341204121 8.04798422568228 3.5116753612643183 -19.228731343186812 0.004083865154653691 10.376521129566708 0.048433319169066194 -5.607617052887395 -15.645463150446353 3.2221894424960724 0.010086376272585401 -0.00816609165583985 0.00385385901161434 0.03273675384092109 4.740592566925311 -0.044990987867679834 12.41029915145826 -8.272412015613043 6.8466190965985545 0.02047676970937245 46.34244362321861 0.0324396920681487 -4.339959126836443 -14.759816259277594 -3.8029222077442997 -0.047259600856634325 -0.0005616655843760435 0.03145597514148035 -0.04222181282814065 -10.762653916298357 -0.006975158590322826 
0.011669288468489617 -0.045702039708631036 -0.026672966914949484 0.015227581195221 0.036346610043261784 0.012429669953442546 -3.3636826501451096 8.786478628250391 -0.6018720136713418 -0.8304142929373353 3.167678259679973 0.4068708525156801 -0.8968329286672128 0.23176191813453784 -1.6631750037864268 -0.17816674841852959 0.6402621947147071 -1.0736032258899695 -0.551090966335143 8.848101556975589 0.35960281775151504 -0.2602916814024713 -1.112361177988745 -2.4281359368912967 -0.28863050434590587 -15.5369325260579 -0.10485426046888102 3.0810963170909074 0.10431851871868081 -9.829730920881573 59.39051690421014 1.3233074408847065 22.9402556080112 2.8072873968237326 3.0267809402085892 98.3046215679103 16.504987686652072 -0.4206556035620732 -4.853141867951449 4.4804003243971735 -0.12352908122231147 -1.609156911751074 -0.014713200179512435 -0.02764497936358448 -56.21155045144108 0.02554796424019539 0.04763599151524833 -56.240701267503184 -38.793632767230385 0.008939453493410417 0.03397032555685287 0.034913018200185345 0.013012504809136198 0.007909375375938166 0.01607337201202431 0.01853517454059917 -0.011549871947596779 -36.73572698609133 0.016826457533474583 -0.006417600037423816 0.022377222451021837 -0.013880087242034718 0.046693612828042304 0.028181370208031225 -0.014705458817333521 0.04845342935059842 -19.742514748869105 0.04750632852225961 -0.0021531984329523075 0.012842246062585527 0.01133841673585985 0.02115477033247245 -0.03713888893618998 0.014459451492336633 -0.0025049195059495774 24.079768652669483 0.01751136440949786 -0.0006558175981958672 28.913591983653085 -0.034923257814286 -0.016496350956378823 28.873298525798663 0.00312052746488575 -0.046043851701973504 -0.18488572777112877 0.500137755998903 8.87276048569922 -52.45082829285912 20.11170255964325 -33.3483050471766 27.004231229024068 -15.800237483788464 -108.3916509054052 -1.9684826892531129 3.068456687935699 -5.983523743207565 -0.4682391560321125 0.07004373378241335 -8.081246376489277 -0.035993858027970844 -0.024906383890420544 44.55626771701219 0.001283519981963068 -0.026105940971272605 44.57797996396846 12.428655380347102 -0.046285529489370425 -0.01243569406449685 0.04588447186054252 -0.007996512549391419 -0.01380406931556263 -0.009907432150065149 0.04918644297778318 -0.04445222422449018 11.111697612984896 -0.03386620454046251 0.0012774362511797888 -0.023849778112862114 0.0017086152744319732 0.024993935727664826 0.04498011824800863 0.02775385473097593 0.04594989637106318 4.80144123772129 -0.010475644756589771 0.034171173069086055 0.011006207205970396 0.029834848067078642 -0.02794662244465147 -0.02869773808116003 -0.010994679295632697 -0.04837911539320596 -5.622421437284602 0.006706891117417944 -0.01630814043635613 -6.715137191118496 0.00942484447334902 -0.01757307963118999 -6.72685154875802 -0.042810825121227455 -0.02762444433516817 -0.004891902067392696 0.03071513088738344 -0.021172773008496532 8.062058103612605 3.484447891629845 -19.210503955495643 0.02924901438703987 10.34947683134419 0.038094867837645 -5.581804815140043 -15.681145910713305 3.199354221579174 0.02278241571792107 -0.0340083962168827 -0.0023108302068514885 -0.044089985535357264 4.6847010393503234 0.03165487068211495 12.46839493558845 -8.212359750197482 6.9254367891469135 0.0011791937133527764 46.419312632680274 0.032550140974718346 -4.331340809627256 -14.792471950369986 -3.805402003733381 0.022835556937644268 0.023473113227106542 0.0037540943834622562 -0.027155796063469028 -10.732755467935533 -0.02953970323641818 
